<svg xmlns="http://www.w3.org/2000/svg" width="16" height="16" fill="none" viewBox="0 0 16 16"><path fill="red" d="M5 4H3V5H2V9H3V11H4V12H5V13H7V14H8V13H10V11H12V9H13V5H12V4H10V5H8V6H7V5H5V4Z"/><path fill="#E0DDFF" d="M4 6H3V7H4V6Z"/><path fill="#E0DDFF" d="M12 5H11V6H12V5Z"/><path fill="#0F0" d="M7 3H4V4H5V5H7V6H8V5H10V4H11V3H8V4H7V3Z"/><path fill="#E0DDFF" d="M8 2H7V4H8V2Z"/><path fill="#E0DDFF" d="M10 6H9V7H10V6Z"/><path fill="#E0DDFF" d="M11 8H10V9H11V8Z"/><path fill="#E0DDFF" d="M10 11H9V12H10V11Z"/><path fill="#E0DDFF" d="M8 7H7V8H8V7Z"/><path fill="#E0DDFF" d="M8 9H7V10H8V9Z"/><path fill="#E0DDFF" d="M7 11H6V12H7V11Z"/><path fill="#E0DDFF" d="M5 9H4V10H5V9Z"/><path fill="#E0DDFF" d="M6 7H5V8H6V7Z"/></svg>