<svg xmlns="http://www.w3.org/2000/svg" width="32" height="16" fill="none" viewBox="0 0 32 16"><path fill="#E0DDFF" d="M4 6V7H6V6H7V3H6V2H4V3H3V6H4Z"/><path fill="#2121FF" d="M4 4V2H6V4H4Z"/><path fill="#E0DDFF" d="M10 6V7H12V6H13V3H12V2H10V3H9V6H10Z"/><path fill="#2121FF" d="M10 4V2H12V4H10Z"/><path fill="#E0DDFF" d="M20 6V7H22V6H23V3H22V2H20V3H19V6H20Z"/><path fill="#2121FF" d="M20 4V2H22V4H20Z"/><path fill="#E0DDFF" d="M26 6V7H28V6H29V3H28V2H26V3H25V6H26Z"/><path fill="#2121FF" d="M26 4V2H28V4H26Z"/></svg>