<svg xmlns="http://www.w3.org/2000/svg" width="32" height="16" fill="none" viewBox="0 0 32 16"><path fill="#E0DDFF" d="M4 9V10H6V9H7V6H6V5H4V6H3V9H4Z"/><path fill="#2121FF" d="M4 10V8H6V10H4Z"/><path fill="#E0DDFF" d="M10 9V10H12V9H13V6H12V5H10V6H9V9H10Z"/><path fill="#2121FF" d="M10 10V8H12V10H10Z"/><path fill="#E0DDFF" d="M20 9V10H22V9H23V6H22V5H20V6H19V9H20Z"/><path fill="#2121FF" d="M20 10V8H22V10H20Z"/><path fill="#E0DDFF" d="M26 9V10H28V9H29V6H28V5H26V6H25V9H26Z"/><path fill="#2121FF" d="M26 10V8H28V10H26Z"/></svg>