<svg xmlns="http://www.w3.org/2000/svg" width="192" height="16" fill="none" viewBox="0 0 192 16"><path fill="#231F20" d="M97 12V14H98V15H102V14H103V13H104V14H105V15H109V14H110V12H108V11H107V10H105V9H104V8H103V9H102V10H100V11H99V12H97Z"/><path fill="#231F20" d="M115 13V14H116V15H119V14H120V15H123V14H124V13H123V12H122V10H121V9H120V8H119V9H118V10H117V12H116V13H115Z"/><path fill="#231F20" d="M133 13V14H134V15H135V14H136V15H137V14H138V13H137V10H136V8H135V10H134V13H133Z"/><path fill="#231F20" d="M152 8H151V14H152V8Z"/><path fill="#231F20" d="M3 3H1V8H2V10H3V11H5V12H10V11H12V10H13V8H14V3H12V4H11V5H10V6H9V7H8V8H7V7H6V6H5V5H4V4H3V3Z"/><path fill="#231F20" d="M17 5H16V8H17V10H18V11H20V12H23V11H24V12H27V11H29V10H30V8H31V5H30V4H29V5H27V6H26V7H24V8H23V7H21V6H20V5H18V4H17V5Z"/><path fill="#231F20" d="M32 6V9H33V10H34V11H36V12H39V11H40V12H43V11H45V10H46V9H47V6H44V7H41V8H38V7H35V6H32Z"/><path fill="#231F20" d="M52 7H48V10H49V11H51V12H55V11H56V12H60V11H62V10H63V7H59V8H52V7Z"/><path fill="#231F20" d="M68 9H64V11H65V12H67V13H71V12H72V13H76V12H78V11H79V9H75V8H68V9Z"/><path fill="#231F20" d="M81 11H80V12H81V13H83V14H86V13H87V12H88V13H89V14H92V13H94V12H95V11H94V10H91V9H89V8H86V9H84V10H81V11Z"/><path fill="#231F20" d="M173 11H171V12H173V11Z"/><path fill="#231F20" d="M164 10H162V11H164V10Z"/><path fill="#231F20" d="M163 8V7H164V8H165V9H164V8H163Z"/><path fill="#231F20" d="M168 15V14H169V15H170V16H169V15H168Z"/><path fill="#231F20" d="M168 8V7H169V6H170V7H169V8H168Z"/><path fill="#231F20" d="M163 14V13H164V12H165V13H164V14H163Z"/><path fill="#231F20" d="M165 16V15H166V14H167V15H166V16H165Z"/><path fill="#231F20" d="M170 10V9H171V8H172V9H171V10H170Z"/><path fill="#231F20" d="M165 7V6H166V7H167V8H166V7H165Z"/><path fill="#231F20" d="M170 14V13H171V14H172V15H171V14H170Z"/></svg>