<svg xmlns="http://www.w3.org/2000/svg" width="32" height="16" fill="none" viewBox="0 0 32 16"><path fill="#F8BB55" d="M3 3V4H2V7H1V15H2V14H3V13H4V14H5V15H7V13H9V15H11V14H12V13H13V14H14V15H15V7H14V4H13V3H12V2H10V1H6V2H5H4V3H3Z"/><path fill="#E0DDFF" d="M5 8V9H7V8H8V5H7V4H5V5H4V8H5Z"/><path fill="#2121FF" d="M6 8V6H8V8H6Z"/><path fill="#E0DDFF" d="M11 8V9H13V8H14V5H13V4H11V5H10V8H11Z"/><path fill="#2121FF" d="M12 8V6H14V8H12Z"/><path fill="#F8BB55" d="M19 3V4H18V7H17V14H18V15H20V14H21V13H22V14H23V15H25V14H26V13H27V14H28V15H30V14H31V7H30V4H29V3H28V2H26V1H22V2H21H20V3H19Z"/><path fill="#E0DDFF" d="M21 8V9H23V8H24V5H23V4H21V5H20V8H21Z"/><path fill="#2121FF" d="M22 8V6H24V8H22Z"/><path fill="#E0DDFF" d="M27 8V9H29V8H30V5H29V4H27V5H26V8H27Z"/><path fill="#2121FF" d="M28 8V6H30V8H28Z"/></svg>